<svg xmlns="http://www.w3.org/2000/svg" viewBox="0 0 287.12 68.3"><defs><style>.cls-1{fill:#fff;}</style></defs><title>アセット 2</title><g id="レイヤー_2" data-name="レイヤー 2"><g id="レイヤー_1-2" data-name="レイヤー 1"><path class="cls-1" d="M284.28,0h-40l-5.67,5.67h42.89v57H181.6l-5.67,5.67H284.28a2.84,2.84,0,0,0,2.84-2.84V2.83A2.84,2.84,0,0,0,284.28,0Z"/><path class="cls-1" d="M5.67,62.63v-57H230.54L236.21,0H2.83A2.83,2.83,0,0,0,0,2.83V65.46A2.84,2.84,0,0,0,2.83,68.3H167.91l5.67-5.67Z"/><polygon class="cls-1" points="128.35 23.61 128.35 28.02 134.39 28.02 139.56 28.02 145.6 28.02 145.6 23.61 128.35 23.61"/><rect class="cls-1" x="134.39" y="29.15" width="5.16" height="15.84"/><polygon class="cls-1" points="186.46 36.93 186.46 32.82 186.46 27.78 186.46 23.61 181.29 23.61 181.29 44.99 186.46 44.99 186.46 39.77 186.46 36.93"/><path class="cls-1" d="M196.86,27.1a5.38,5.38,0,0,0-1.78-2A7.7,7.7,0,0,0,192.42,24a14.2,14.2,0,0,0-3.27-.35h-1.56v4.17h1.13a9.87,9.87,0,0,1,1.35.09,3.5,3.5,0,0,1,1.16.36,2.19,2.19,0,0,1,.82.75,2.35,2.35,0,0,1,.3,1.24,2.42,2.42,0,0,1-.3,1.26,2.36,2.36,0,0,1-.83.8,3.88,3.88,0,0,1-1.2.42,7.74,7.74,0,0,1-1.39.12h-1v4.11H189a14.08,14.08,0,0,0,3.2-.36,8.5,8.5,0,0,0,2.71-1.15,5.85,5.85,0,0,0,1.88-2.07,6.62,6.62,0,0,0,.69-3.16A6.54,6.54,0,0,0,196.86,27.1Z"/><path class="cls-1" d="M240.59,29.31a8.71,8.71,0,0,0-2.7-3.19,10.86,10.86,0,0,0-3.82-1.7,18.72,18.72,0,0,0-4.34-.51h-1.52v4.28h1.4a10.45,10.45,0,0,1,2.51.3,6,6,0,0,1,2.17,1,4.9,4.9,0,0,1,1.53,1.85,6.64,6.64,0,0,1,.57,2.92,6.62,6.62,0,0,1-.57,2.91A4.92,4.92,0,0,1,234.29,39a6,6,0,0,1-2.2,1,10.58,10.58,0,0,1-2.6.31h-1.28V44.7H230a15.22,15.22,0,0,0,4.23-.6,11.21,11.21,0,0,0,3.75-1.88A9.62,9.62,0,0,0,240.61,39a10.31,10.31,0,0,0,1-4.72A10.64,10.64,0,0,0,240.59,29.31Z"/><polygon class="cls-1" points="227.11 28.2 227.11 23.91 222.21 23.91 222.21 44.7 227.11 44.7 227.11 40.35 227.11 28.2"/><polygon class="cls-1" points="255.7 35.89 255.7 32.19 255.7 27.9 255.7 23.91 250.85 23.91 250.85 44.7 255.7 44.7 255.7 40.65 255.7 35.89"/><path class="cls-1" d="M266.73,36.8a4.83,4.83,0,0,0-.91-1.44,4.68,4.68,0,0,0-1.35-1,5.69,5.69,0,0,0-1.66-.55v0a5.31,5.31,0,0,0,2.46-1.63,4.33,4.33,0,0,0,.94-2.87A4.55,4.55,0,0,0,263.89,25a7.14,7.14,0,0,0-2.29-.85,12.37,12.37,0,0,0-2.46-.25H256.8v4h1.37a4.66,4.66,0,0,1,2.39.49,1.65,1.65,0,0,1,.81,1.54,2,2,0,0,1-.78,1.69,3.66,3.66,0,0,1-2.19.57h-1.6v3.7h1.69a5.66,5.66,0,0,1,2.58.5,1.83,1.83,0,0,1,1,1.79,2.17,2.17,0,0,1-.32,1.25,2.33,2.33,0,0,1-.84.75,3.71,3.71,0,0,1-1.14.36,7.47,7.47,0,0,1-1.22.11H256.8V44.7h2.34a13.53,13.53,0,0,0,2.92-.31,7.72,7.72,0,0,0,2.54-1,5.35,5.35,0,0,0,1.79-1.87,5.58,5.58,0,0,0,.68-2.86A5,5,0,0,0,266.73,36.8Z"/><path class="cls-1" d="M114.08,35.84a6.41,6.41,0,0,0,3.26-2.11,5.68,5.68,0,0,0,1.18-3.66,6.26,6.26,0,0,0-.69-3.08A5.56,5.56,0,0,0,116,25a7.89,7.89,0,0,0-2.63-1.08,14.21,14.21,0,0,0-3-.31h-2.22v4.17H110a8.5,8.5,0,0,1,1.2.09,3.58,3.58,0,0,1,1.12.34,2.3,2.3,0,0,1,.82.73,2.14,2.14,0,0,1,.32,1.22,2.32,2.32,0,0,1-.35,1.33,2.29,2.29,0,0,1-.9.79,4.17,4.17,0,0,1-1.21.37,8.47,8.47,0,0,1-1.31.11h-1.53V36.5H109L113.63,45h6Z"/><polyline class="cls-1" points="106.99 23.61 102.18 23.61 102.18 44.99 106.99 44.99"/><path class="cls-1" d="M31,27.68a4.78,4.78,0,0,1,1.08.7l3.33-3.33a9.75,9.75,0,0,0-2-1.18L30,27.32A5.77,5.77,0,0,1,31,27.68Z"/><path class="cls-1" d="M33.64,33.8a8.49,8.49,0,0,0-2.14-1.16c-.79-.29-1.54-.56-2.27-.8-.5-.16-.95-.32-1.36-.47a5.94,5.94,0,0,1-1-.5,2,2,0,0,1-.66-.63,1.73,1.73,0,0,1-.23-.91,1.77,1.77,0,0,1,.29-1,2.27,2.27,0,0,1,.71-.67,2.69,2.69,0,0,1,.95-.34c.2,0,.4,0,.6-.06l3.77-3.77A11,11,0,0,0,29,22.93a12.12,12.12,0,0,0-3,.37,8.25,8.25,0,0,0-2.66,1.2,6.32,6.32,0,0,0-1.9,2.08,6.09,6.09,0,0,0-.73,3.05,5.83,5.83,0,0,0,.47,2.46,5.46,5.46,0,0,0,1.24,1.73A6.75,6.75,0,0,0,24.2,35a19,19,0,0,0,2,.78l1.89.62a7,7,0,0,1,1.39.64,3,3,0,0,1,.86.77,1.72,1.72,0,0,1,.3,1,2.27,2.27,0,0,1-.24,1.08,2,2,0,0,1-.65.73,2.8,2.8,0,0,1-1,.39,5.19,5.19,0,0,1-1.12.12,5.68,5.68,0,0,1-2.55-.65,6.08,6.08,0,0,1-2.07-1.62l-3.38,3.45a9.26,9.26,0,0,0,3.56,2.28,12.68,12.68,0,0,0,4.44.8,11.06,11.06,0,0,0,3-.42,7.8,7.8,0,0,0,2.63-1.3,6.38,6.38,0,0,0,1.83-2.22,7,7,0,0,0,.68-3.19,5.08,5.08,0,0,0-.64-2.67A5.9,5.9,0,0,0,33.64,33.8Z"/><polygon class="cls-1" points="79.33 36.66 80.22 34.17 79.31 36.66 79.33 36.66"/><polygon class="cls-1" points="79.61 23.61 70.64 44.99 76.25 44.99 77.83 40.8 77.83 40.8 79.33 36.66 79.31 36.66 80.22 34.17 81.5 30.63 81.5 23.61 79.61 23.61"/><polygon class="cls-1" points="93.5 44.99 84.62 23.61 82.63 23.61 82.63 30.71 87.82 44.99 93.5 44.99"/><path class="cls-1" d="M161.58,40.27a3.28,3.28,0,0,1-1.24-1,4.54,4.54,0,0,1-.7-1.41,6,6,0,0,1-.22-1.66V23.31h-5.14V36.64a9.43,9.43,0,0,0,.63,3.52,7.66,7.66,0,0,0,1.82,2.72,8.09,8.09,0,0,0,2.87,1.77,10.63,10.63,0,0,0,3.29.62V40.58A3.94,3.94,0,0,1,161.58,40.27Z"/><path class="cls-1" d="M167.46,23.31V36.22a6.4,6.4,0,0,1-.21,1.66,4,4,0,0,1-.7,1.41,3.4,3.4,0,0,1-1.25,1,4.14,4.14,0,0,1-1.28.31v4.68a10.38,10.38,0,0,0,3.18-.61,8.5,8.5,0,0,0,2.92-1.77A7.75,7.75,0,0,0,172,40.16a9.23,9.23,0,0,0,.65-3.52V23.31Z"/><polygon class="cls-1" points="44.71 23.61 44.71 28.02 50.75 28.02 55.91 28.02 61.95 28.02 61.95 23.61 44.71 23.61"/><rect class="cls-1" x="50.75" y="29.15" width="5.16" height="15.84"/></g></g></svg>